<?xml version="1.0" encoding="utf-8"?>
<!-- Generator: Adobe Illustrator 22.0.1, SVG Export Plug-In . SVG Version: 6.00 Build 0)  -->
<svg version="1.1" id="Capa_1" xmlns="http://www.w3.org/2000/svg" xmlns:xlink="http://www.w3.org/1999/xlink" x="0px" y="0px"
	 viewBox="0 0 480 480" style="enable-background:new 0 0 480 480;" xml:space="preserve">
<style type="text/css">
	.st0{fill:#F5832F;}
</style>
<g>
	<g>
		<path class="st0" d="M477.7,2.3c-1.8-1.8-4.5-2.7-7-2.2L367.1,18c-37.4,6.5-73,20.8-104.6,42L203.7,56c-2.3-0.1-4.5,0.7-6.2,2.3
			L95.7,160.2c-3.1,3.1-3.1,8.2,0,11.3c1.4,1.4,3.2,2.2,5.1,2.3l62,4.1l-24.4,24.4c-2.4,2.4-3,6.1-1.4,9.1
			C102.1,229.3,80.2,264.9,80,304v88c0,4.4,3.6,8,8,8h88c39.1-0.2,74.7-22.1,92.5-56.9c3,1.6,6.7,1,9.1-1.5l19.7-19.7l4.3,65.2
			c0.3,4.4,4.1,7.7,8.5,7.4c1.9-0.1,3.7-0.9,5.1-2.3l101.9-101.8c1.6-1.6,2.5-3.9,2.3-6.2l-4-60.2C439.1,191,455,153,462.1,112.9
			L479.9,9.4C480.3,6.8,479.5,4.2,477.7,2.3z M119.4,159l86.8-86.8l36.3,2.4c-28.9,23.3-52.8,52.3-70.1,85.2l-1.4,2.7L119.4,159z
			 M176,384H96v-80c0.1-34.7,20.6-66.2,52.3-80.4l13.8,13.8c-16,8.1-26.1,24.5-26.2,42.5v56c0,4.4,3.6,8,8,8h56
			c18,0,34.4-10.2,42.5-26.2l13.8,13.8C242.2,363.4,210.7,383.9,176,384z M174.3,249.6l56.1,56.1C226.2,319,213.9,328,200,328h-48
			v-48C152,266.1,161,253.8,174.3,249.6z M272,324.7l-0.6-0.6l-26.5-26.5l-62.5-62.5l-26.5-26.5l-0.6-0.6l20.7-20.7L292.7,304
			L272,324.7z M316.5,368.5l-3.8-57l7.5-3.9c30.7-16.2,58-38.1,80.5-64.6l2.6,38.7L316.5,368.5z M446.3,110.1
			c-13.8,78.4-63,146.1-133.5,183.3l-5.3,2.8L183.8,172.5l2.8-5.3C223.8,96.8,291.4,47.5,369.9,33.7l92.3-15.9L446.3,110.1z"/>
	</g>
</g>
<g>
	<g>
		<path class="st0" d="M315.3,464c3.9-14.4,1.3-29.9-7.3-42.2c-15.9-23-47.5-28.8-70.5-12.8c-7,4.8-12.7,11.4-16.5,19
			c-10.9,22-33.2,35.9-57.7,36l34.3-34.3l-11.3-11.3l-48,48c-3.1,3.1-3.1,8.2,0,11.3c1.5,1.5,3.5,2.3,5.7,2.3h18.8
			c30.7,0.1,58.9-17.3,72.5-44.8c8.6-17.1,29.4-24.1,46.6-15.5c15.9,7.9,23.2,26.6,17,43.2l-2.4,6.3c-1.5,4.1,0.6,8.7,4.7,10.3
			c0.9,0.3,1.9,0.5,2.8,0.5h48v-16L315.3,464L315.3,464z"/>
	</g>
</g>
<g>
	<g>
		<rect x="368" y="464" class="st0" width="16" height="16"/>
	</g>
</g>
<g>
	<g>
		<rect x="400" y="464" class="st0" width="16" height="16"/>
	</g>
</g>
<g>
	<g>
		
			<rect x="52.4" y="436" transform="matrix(0.7071 -0.7071 0.7071 0.7071 -287.0085 195.0916)" class="st0" width="79.2" height="16"/>
	</g>
</g>
<g>
	<g>
		<path class="st0" d="M58.3,378.3L16,420.7v-16c-0.1-26.5,10.5-51.9,29.3-70.6c12-12,18.8-28.3,18.7-45.3V288c0-35.3-28.7-64-64-64
			v16c26.5,0,48,21.5,48,48v0.8c0,12.7-5,25-14.1,33.9c-21.8,21.7-34,51.2-33.9,82V440c0,3.2,1.9,6.2,4.9,7.4c3,1.2,6.4,0.6,8.7-1.7
			l56-56L58.3,378.3z"/>
	</g>
</g>
<g>
	<g>
		<rect x="4.6" y="456" transform="matrix(0.7071 -0.7071 0.7071 0.7071 -323.42 147.1847)" class="st0" width="22.6" height="16"/>
	</g>
</g>
<g>
	<g>
		<path class="st0" d="M352,80c-26.5,0-48,21.5-48,48c0,1.5,0.1,3,0.2,4.4l-13.9,13.9l-8,8c-12,12-12,31.4,0,43.3
			c12,12,31.4,12,43.3,0l8-8l13.9-13.9c1.5,0.2,3,0.2,4.4,0.2c26.5,0,48-21.5,48-48S378.5,80,352,80z M314.3,186.3
			c-5.8,5.6-15.1,5.4-20.7-0.4c-5.4-5.7-5.4-14.6,0-20.2l2.3-2.3l20.7,20.7L314.3,186.3z M352,160c-2,0-3.9-0.2-5.8-0.6
			c-2.6-0.5-5.2,0.3-7.1,2.2L328,172.7l-4.7-4.7l17-17l22.2-7.4l-5.1-15.2l-8.8,2.9l2.9-8.8l-15.2-5.1l-7.4,22.2l-17,17l-4.7-4.7
			l11.1-11.1c1.9-1.9,2.7-4.5,2.2-7.1c-0.4-1.9-0.6-3.9-0.6-5.8c0-17.7,14.3-32,32-32s32,14.3,32,32S369.7,160,352,160z"/>
	</g>
</g>
<g>
	<g>
		
			<rect x="396.7" y="64" transform="matrix(0.7071 -0.7071 0.7071 0.7071 68.5919 309.5851)" class="st0" width="22.6" height="16"/>
	</g>
</g>
<g>
	<g>
		<rect x="408" y="120" class="st0" width="24" height="16"/>
	</g>
</g>
<g>
	<g>
		<rect x="344" y="48" class="st0" width="16" height="24"/>
	</g>
</g>
</svg>
